<?xml version="1.0" encoding="UTF-8" standalone="no"?><!DOCTYPE svg PUBLIC "-//W3C//DTD SVG 1.1//EN" "http://www.w3.org/Graphics/SVG/1.1/DTD/svg11.dtd"><svg width="100%" height="100%" viewBox="0 0 146 23" version="1.1" xmlns="http://www.w3.org/2000/svg" xmlns:xlink="http://www.w3.org/1999/xlink" xml:space="preserve" xmlns:serif="http://www.serif.com/" style="fill-rule:evenodd;clip-rule:evenodd;stroke-linejoin:round;stroke-miterlimit:2;"><rect id="logo-text" x="0" y="0" width="146" height="23" style="fill:none;"/><g><path d="M6.6,22.89c-1.3,-0 -2.52,-0.215 -3.66,-0.645c-1.14,-0.43 -2.12,-1.075 -2.94,-1.935l1.02,-1.86c0.9,0.84 1.8,1.44 2.7,1.8c0.9,0.36 1.82,0.54 2.76,0.54c1.08,-0 1.96,-0.205 2.64,-0.615c0.68,-0.41 1.02,-1.015 1.02,-1.815c0,-0.58 -0.175,-1.01 -0.525,-1.29c-0.35,-0.28 -0.845,-0.515 -1.485,-0.705c-0.64,-0.19 -1.4,-0.405 -2.28,-0.645c-1.08,-0.32 -1.99,-0.66 -2.73,-1.02c-0.74,-0.36 -1.3,-0.81 -1.68,-1.35c-0.38,-0.54 -0.57,-1.22 -0.57,-2.04c0,-1 0.26,-1.845 0.78,-2.535c0.52,-0.69 1.235,-1.215 2.145,-1.575c0.91,-0.36 1.945,-0.54 3.105,-0.54c1.16,-0 2.21,0.18 3.15,0.54c0.94,0.36 1.75,0.89 2.43,1.59l-1.2,1.83c-0.62,-0.64 -1.3,-1.115 -2.04,-1.425c-0.74,-0.31 -1.57,-0.465 -2.49,-0.465c-0.54,-0 -1.07,0.065 -1.59,0.195c-0.52,0.13 -0.95,0.36 -1.29,0.69c-0.34,0.33 -0.51,0.795 -0.51,1.395c0,0.5 0.135,0.895 0.405,1.185c0.27,0.29 0.67,0.535 1.2,0.735c0.53,0.2 1.175,0.42 1.935,0.66c1.18,0.34 2.205,0.68 3.075,1.02c0.87,0.34 1.545,0.78 2.025,1.32c0.48,0.54 0.72,1.29 0.72,2.25c0,1.48 -0.56,2.635 -1.68,3.465c-1.12,0.83 -2.6,1.245 -4.44,1.245Z" style="fill-rule:nonzero;"/><path d="M22.8,22.89c-1.18,-0 -2.255,-0.215 -3.225,-0.645c-0.97,-0.43 -1.81,-1.02 -2.52,-1.77c-0.71,-0.75 -1.26,-1.615 -1.65,-2.595c-0.39,-0.98 -0.585,-2.02 -0.585,-3.12c0,-1.48 0.34,-2.83 1.02,-4.05c0.68,-1.22 1.625,-2.2 2.835,-2.94c1.21,-0.74 2.595,-1.11 4.155,-1.11c1.58,-0 2.955,0.375 4.125,1.125c1.17,0.75 2.08,1.73 2.73,2.94c0.65,1.21 0.975,2.515 0.975,3.915c0,0.2 -0.005,0.395 -0.015,0.585c-0.01,0.19 -0.025,0.335 -0.045,0.435l-12.99,-0c0.08,1.02 0.365,1.925 0.855,2.715c0.49,0.79 1.125,1.41 1.905,1.86c0.78,0.45 1.62,0.675 2.52,0.675c0.96,-0 1.865,-0.24 2.715,-0.72c0.85,-0.48 1.435,-1.11 1.755,-1.89l2.28,0.63c-0.34,0.76 -0.845,1.44 -1.515,2.04c-0.67,0.6 -1.46,1.07 -2.37,1.41c-0.91,0.34 -1.895,0.51 -2.955,0.51Zm-5.28,-9.06l10.68,-0c-0.08,-1.02 -0.37,-1.92 -0.87,-2.7c-0.5,-0.78 -1.14,-1.39 -1.92,-1.83c-0.78,-0.44 -1.64,-0.66 -2.58,-0.66c-0.92,-0 -1.77,0.22 -2.55,0.66c-0.78,0.44 -1.415,1.05 -1.905,1.83c-0.49,0.78 -0.775,1.68 -0.855,2.7Z" style="fill-rule:nonzero;"/><path d="M40.53,22.89c-1.18,-0 -2.255,-0.215 -3.225,-0.645c-0.97,-0.43 -1.81,-1.02 -2.52,-1.77c-0.71,-0.75 -1.26,-1.615 -1.65,-2.595c-0.39,-0.98 -0.585,-2.02 -0.585,-3.12c0,-1.48 0.34,-2.83 1.02,-4.05c0.68,-1.22 1.625,-2.2 2.835,-2.94c1.21,-0.74 2.595,-1.11 4.155,-1.11c1.58,-0 2.955,0.375 4.125,1.125c1.17,0.75 2.08,1.73 2.73,2.94c0.65,1.21 0.975,2.515 0.975,3.915c0,0.2 -0.005,0.395 -0.015,0.585c-0.01,0.19 -0.025,0.335 -0.045,0.435l-12.99,-0c0.08,1.02 0.365,1.925 0.855,2.715c0.49,0.79 1.125,1.41 1.905,1.86c0.78,0.45 1.62,0.675 2.52,0.675c0.96,-0 1.865,-0.24 2.715,-0.72c0.85,-0.48 1.435,-1.11 1.755,-1.89l2.28,0.63c-0.34,0.76 -0.845,1.44 -1.515,2.04c-0.67,0.6 -1.46,1.07 -2.37,1.41c-0.91,0.34 -1.895,0.51 -2.955,0.51Zm-5.28,-9.06l10.68,-0c-0.08,-1.02 -0.37,-1.92 -0.87,-2.7c-0.5,-0.78 -1.14,-1.39 -1.92,-1.83c-0.78,-0.44 -1.64,-0.66 -2.58,-0.66c-0.92,-0 -1.77,0.22 -2.55,0.66c-0.78,0.44 -1.415,1.05 -1.905,1.83c-0.49,0.78 -0.775,1.68 -0.855,2.7Z" style="fill-rule:nonzero;"/><path d="M58.87,22.59l-5.43,-7.62l-2.97,2.79l0,-2.76l8.1,-8.04l2.85,-0l-6.24,6.48l6.54,9.15l-2.85,-0Z" style="fill-rule:nonzero;"/><path d="M64.84,9l-2.13,-0l0,-2.07l2.13,-0l0,-0.33c0,-0.78 0.12,-1.535 0.36,-2.265c0.24,-0.73 0.6,-1.395 1.08,-1.995c0.48,-0.6 1.08,-1.075 1.8,-1.425c0.72,-0.35 1.57,-0.525 2.55,-0.525c0.74,-0 1.42,0.08 2.04,0.24c0.62,0.16 1.175,0.36 1.665,0.6c0.49,0.24 0.895,0.48 1.215,0.72l-1.14,1.95c-0.38,-0.34 -0.895,-0.63 -1.545,-0.87c-0.65,-0.24 -1.345,-0.36 -2.085,-0.36c-0.76,-0 -1.385,0.19 -1.875,0.57c-0.49,0.38 -0.85,0.865 -1.08,1.455c-0.23,0.59 -0.345,1.195 -0.345,1.815l0,0.42l8.01,-0l0,15.66l-2.64,-0l0,-13.59l-5.37,-0l0,13.59l-2.64,-0l0,-13.59Z" style="fill-rule:nonzero;"/><path d="M86.68,22.89c-1.18,-0 -2.255,-0.215 -3.225,-0.645c-0.97,-0.43 -1.81,-1.025 -2.52,-1.785c-0.71,-0.76 -1.26,-1.63 -1.65,-2.61c-0.39,-0.98 -0.585,-2.02 -0.585,-3.12c0,-1.48 0.33,-2.83 0.99,-4.05c0.66,-1.22 1.59,-2.195 2.79,-2.925c1.2,-0.73 2.59,-1.095 4.17,-1.095c1.54,-0 2.885,0.345 4.035,1.035c1.15,0.69 2.005,1.615 2.565,2.775l-2.58,0.81c-0.4,-0.74 -0.96,-1.315 -1.68,-1.725c-0.72,-0.41 -1.52,-0.615 -2.4,-0.615c-0.96,-0 -1.835,0.25 -2.625,0.75c-0.79,0.5 -1.415,1.185 -1.875,2.055c-0.46,0.87 -0.69,1.865 -0.69,2.985c0,1.1 0.235,2.095 0.705,2.985c0.47,0.89 1.1,1.595 1.89,2.115c0.79,0.52 1.665,0.78 2.625,0.78c0.62,-0 1.215,-0.11 1.785,-0.33c0.57,-0.22 1.07,-0.515 1.5,-0.885c0.43,-0.37 0.725,-0.775 0.885,-1.215l2.58,0.78c-0.32,0.76 -0.805,1.435 -1.455,2.025c-0.65,0.59 -1.42,1.055 -2.31,1.395c-0.89,0.34 -1.865,0.51 -2.925,0.51Z" style="fill-rule:nonzero;"/><path d="M104.47,21.81c-0.22,0.1 -0.52,0.23 -0.9,0.39c-0.38,0.16 -0.82,0.3 -1.32,0.42c-0.5,0.12 -1.03,0.18 -1.59,0.18c-0.64,-0 -1.23,-0.115 -1.77,-0.345c-0.54,-0.23 -0.97,-0.59 -1.29,-1.08c-0.32,-0.49 -0.48,-1.105 -0.48,-1.845l0,-10.53l-2.13,-0l0,-2.07l2.13,-0l0,-5.22l2.64,-0l0,5.22l3.51,-0l0,2.07l-3.51,-0l0,9.72c0.04,0.56 0.23,0.975 0.57,1.245c0.34,0.27 0.74,0.405 1.2,0.405c0.52,-0 1,-0.09 1.44,-0.27c0.44,-0.18 0.73,-0.31 0.87,-0.39l0.63,2.1Z" style="fill-rule:nonzero;"/><path d="M106.93,22.59l0,-15.66l2.64,-0l0,15.66l-2.64,-0Zm0,-18.6l0,-3.3l2.64,-0l0,3.3l-2.64,-0Z" style="fill-rule:nonzero;"/><path d="M120.67,22.89c-1.18,-0 -2.25,-0.215 -3.21,-0.645c-0.96,-0.43 -1.79,-1.02 -2.49,-1.77c-0.7,-0.75 -1.24,-1.615 -1.62,-2.595c-0.38,-0.98 -0.57,-2.01 -0.57,-3.09c0,-1.1 0.19,-2.14 0.57,-3.12c0.38,-0.98 0.92,-1.845 1.62,-2.595c0.7,-0.75 1.535,-1.34 2.505,-1.77c0.97,-0.43 2.045,-0.645 3.225,-0.645c1.16,-0 2.22,0.215 3.18,0.645c0.96,0.43 1.795,1.02 2.505,1.77c0.71,0.75 1.255,1.615 1.635,2.595c0.38,0.98 0.57,2.02 0.57,3.12c0,1.08 -0.19,2.11 -0.57,3.09c-0.38,0.98 -0.92,1.845 -1.62,2.595c-0.7,0.75 -1.535,1.34 -2.505,1.77c-0.97,0.43 -2.045,0.645 -3.225,0.645Zm-5.19,-8.07c0,1.08 0.235,2.06 0.705,2.94c0.47,0.88 1.095,1.575 1.875,2.085c0.78,0.51 1.65,0.765 2.61,0.765c0.96,-0 1.835,-0.26 2.625,-0.78c0.79,-0.52 1.42,-1.225 1.89,-2.115c0.47,-0.89 0.705,-1.875 0.705,-2.955c0,-1.08 -0.235,-2.06 -0.705,-2.94c-0.47,-0.88 -1.1,-1.58 -1.89,-2.1c-0.79,-0.52 -1.665,-0.78 -2.625,-0.78c-0.96,-0 -1.83,0.265 -2.61,0.795c-0.78,0.53 -1.405,1.235 -1.875,2.115c-0.47,0.88 -0.705,1.87 -0.705,2.97Z" style="fill-rule:nonzero;"/><path d="M145.39,22.59l-2.64,-0l0,-8.76c0,-1.66 -0.255,-2.875 -0.765,-3.645c-0.51,-0.77 -1.285,-1.155 -2.325,-1.155c-0.72,-0 -1.435,0.18 -2.145,0.54c-0.71,0.36 -1.34,0.845 -1.89,1.455c-0.55,0.61 -0.945,1.315 -1.185,2.115l0,9.45l-2.64,-0l0,-15.66l2.4,-0l0,3.36c0.42,-0.74 0.96,-1.38 1.62,-1.92c0.66,-0.54 1.41,-0.96 2.25,-1.26c0.84,-0.3 1.72,-0.45 2.64,-0.45c0.9,-0 1.655,0.165 2.265,0.495c0.61,0.33 1.09,0.79 1.44,1.38c0.35,0.59 0.6,1.285 0.75,2.085c0.15,0.8 0.225,1.67 0.225,2.61l0,9.36Z" style="fill-rule:nonzero;"/></g><path d="M50.47,12.63l12.24,-12.24l-12.24,-0l-0,12.24Z" style="fill:#2687e8;"/></svg>