<svg xmlns="http://www.w3.org/2000/svg" xml:space="preserve" style="fill-rule:evenodd;clip-rule:evenodd;stroke-linejoin:round;stroke-miterlimit:2" viewBox="0 0 146 23"><path d="M0 0h146v23H0z" style="fill:none"/><path d="M6.6 22.89c-1.3 0-2.52-.21-3.66-.65A7.82 7.82 0 0 1 0 20.32l1.02-1.86c.9.84 1.8 1.44 2.7 1.8.9.36 1.82.54 2.76.54 1.08 0 1.96-.2 2.64-.61a1.99 1.99 0 0 0 1.02-1.82c0-.58-.18-1.01-.53-1.29a4.37 4.37 0 0 0-1.48-.7c-.64-.2-1.4-.41-2.28-.65a18.01 18.01 0 0 1-2.73-1.02 4.29 4.29 0 0 1-1.68-1.35 3.46 3.46 0 0 1-.57-2.04c0-1 .26-1.84.78-2.53A4.84 4.84 0 0 1 3.8 7.2a8.39 8.39 0 0 1 3.1-.54c1.16 0 2.21.18 3.15.54.94.36 1.75.89 2.43 1.59l-1.2 1.83A6.14 6.14 0 0 0 9.24 9.2a6.39 6.39 0 0 0-2.49-.47c-.54 0-1.07.07-1.59.2s-.95.36-1.29.69c-.34.33-.51.79-.51 1.39 0 .5.14.9.4 1.19.28.29.68.53 1.2.73.54.2 1.18.42 1.94.66 1.18.34 2.2.68 3.08 1.02.87.34 1.54.78 2.02 1.32s.72 1.29.72 2.25c0 1.48-.56 2.64-1.68 3.47a7.28 7.28 0 0 1-4.44 1.24ZM22.8 22.89a7.87 7.87 0 0 1-5.75-2.41 8.09 8.09 0 0 1-2.23-5.72c0-1.48.34-2.83 1.02-4.05a7.8 7.8 0 0 1 6.99-4.05 7.48 7.48 0 0 1 6.86 4.07 8.15 8.15 0 0 1 .91 4.93H17.61c.08 1.02.36 1.93.85 2.72a5.38 5.38 0 0 0 1.91 1.86c.78.45 1.62.67 2.52.67.96 0 1.86-.24 2.71-.72a3.85 3.85 0 0 0 1.76-1.89l2.28.63a6.04 6.04 0 0 1-1.51 2.04 7.39 7.39 0 0 1-2.37 1.41c-.92.34-1.9.51-2.96.51Zm-5.28-9.06H28.2a5.75 5.75 0 0 0-.87-2.7 5.42 5.42 0 0 0-1.92-1.83 5.16 5.16 0 0 0-2.58-.66 5.3 5.3 0 0 0-4.46 2.49 5.85 5.85 0 0 0-.85 2.7ZM40.53 22.89a7.87 7.87 0 0 1-5.75-2.41 8.09 8.09 0 0 1-2.23-5.72c0-1.48.34-2.83 1.02-4.05a7.8 7.8 0 0 1 6.99-4.05 7.48 7.48 0 0 1 6.85 4.07 8.15 8.15 0 0 1 .92 4.93H35.34c.08 1.02.36 1.93.85 2.72a5.38 5.38 0 0 0 1.91 1.86c.78.45 1.62.67 2.52.67.96 0 1.86-.24 2.71-.72a3.85 3.85 0 0 0 1.76-1.89l2.28.63a6.04 6.04 0 0 1-1.51 2.04 7.39 7.39 0 0 1-2.38 1.41c-.9.34-1.89.51-2.95.51Zm-5.28-9.06h10.68a5.75 5.75 0 0 0-.87-2.7 5.42 5.42 0 0 0-1.92-1.83 5.16 5.16 0 0 0-2.58-.66 5.3 5.3 0 0 0-4.45 2.49 5.85 5.85 0 0 0-.86 2.7ZM58.87 22.59l-5.43-7.62-2.97 2.79V15l8.1-8.04h2.85l-6.24 6.48 6.54 9.15h-2.85ZM64.84 9h-2.13V6.93h2.13V6.6c0-.78.12-1.53.36-2.27.24-.73.6-1.39 1.08-1.99a5.16 5.16 0 0 1 1.8-1.43A5.77 5.77 0 0 1 70.63.4a8.15 8.15 0 0 1 3.7.84c.5.24.9.48 1.22.72L74.41 3.9c-.38-.34-.9-.63-1.54-.87a5.97 5.97 0 0 0-2.09-.36c-.76 0-1.38.19-1.87.57-.5.38-.85.86-1.08 1.45-.23.6-.35 1.2-.35 1.82v.42h8.01v15.66h-2.64V9h-5.37v13.59h-2.64V9ZM86.68 22.89a7.65 7.65 0 0 1-5.74-2.43 8.26 8.26 0 0 1-2.24-5.73c0-1.48.33-2.83.99-4.05a7.6 7.6 0 0 1 6.96-4.02 7.7 7.7 0 0 1 4.04 1.03c1.15.7 2 1.62 2.56 2.78l-2.58.81a4.3 4.3 0 0 0-1.68-1.72 4.76 4.76 0 0 0-2.4-.62 4.8 4.8 0 0 0-2.63.75 5.32 5.32 0 0 0-1.87 2.06 6.29 6.29 0 0 0-.69 2.98c0 1.1.23 2.1.7 2.98.48.9 1.1 1.6 1.9 2.12a4.91 4.91 0 0 0 5.91-.43c.42-.37.72-.78.88-1.22l2.58.78c-.32.76-.8 1.44-1.46 2.02a7.24 7.24 0 0 1-2.3 1.4c-.9.34-1.87.51-2.93.51ZM104.47 21.81l-.9.39c-.38.16-.82.3-1.32.42a6.8 6.8 0 0 1-1.59.18c-.64 0-1.23-.12-1.77-.34a2.83 2.83 0 0 1-1.29-1.08 3.3 3.3 0 0 1-.48-1.85V9h-2.13V6.93h2.13V1.71h2.64v5.22h3.51V9h-3.51v9.72c.04.56.23.98.57 1.25.34.27.74.4 1.2.4.52 0 1-.09 1.44-.27.44-.18.73-.31.87-.39l.63 2.1ZM106.93 22.59V6.93h2.64v15.66h-2.64Zm0-18.6V.69h2.64v3.3h-2.64ZM120.67 22.89a7.64 7.64 0 0 1-7.32-5.01 8.55 8.55 0 0 1 0-6.21 8 8 0 0 1 1.62-2.6 7.6 7.6 0 0 1 5.73-2.41 7.7 7.7 0 0 1 7.32 5.01 8.55 8.55 0 0 1 0 6.21 8 8 0 0 1-1.62 2.6 7.6 7.6 0 0 1-5.73 2.41Zm-5.19-8.07c0 1.08.23 2.06.7 2.94.47.88 1.1 1.57 1.88 2.08.78.52 1.65.77 2.61.77s1.83-.26 2.63-.78a5.62 5.62 0 0 0 1.89-2.11c.47-.9.7-1.88.7-2.96s-.23-2.06-.7-2.94a5.65 5.65 0 0 0-1.9-2.1 4.67 4.67 0 0 0-2.62-.78c-.96 0-1.83.27-2.61.8a5.82 5.82 0 0 0-1.88 2.11 6.2 6.2 0 0 0-.7 2.97ZM145.39 22.59h-2.64v-8.76c0-1.66-.26-2.88-.77-3.65-.5-.76-1.28-1.15-2.32-1.15a4.7 4.7 0 0 0-2.14.54c-.71.36-1.34.84-1.9 1.46a5.46 5.46 0 0 0-1.18 2.11v9.45h-2.64V6.93h2.4v3.36a6.8 6.8 0 0 1 1.62-1.92 7.79 7.79 0 0 1 4.89-1.71c.9 0 1.66.16 2.27.5.6.32 1.09.78 1.44 1.37.35.6.6 1.29.75 2.09.15.8.22 1.67.22 2.61v9.36Z" style="fill-rule:nonzero"/><path d="M50.47 12.63 62.71.39H50.47v12.24Z" style="fill:#2687e8"/></svg>