<?xml version="1.0" standalone="no"?>
<!DOCTYPE svg PUBLIC "-//W3C//DTD SVG 20010904//EN"
 "http://www.w3.org/TR/2001/REC-SVG-20010904/DTD/svg10.dtd">
<svg version="1.0" xmlns="http://www.w3.org/2000/svg"
 width="512.000000pt" height="512.000000pt" viewBox="0 0 512.000000 512.000000"
 preserveAspectRatio="xMidYMid meet">
<metadata>
Created by potrace 1.14, written by Peter Selinger 2001-2017
</metadata>
<g transform="translate(0.000000,512.000000) scale(0.100000,-0.100000)"
fill="#000000" stroke="none">
<path d="M39 4795 c-1 0 -2 -546 -3 -1212 0 -667 1 -1213 4 -1213 7 0 2420
2414 2420 2420 0 3 -2133 8 -2421 5z"/>
<path d="M4047 4794 c-1 -1 -38 -4 -82 -7 -149 -11 -269 -43 -400 -109 -205
-102 -364 -263 -480 -483 -37 -70 -78 -167 -91 -215 -38 -138 -55 -242 -61
-360 -3 -74 -7 -136 -8 -138 -2 -2 -98 -4 -214 -4 l-211 0 0 -209 0 -209 215
0 215 0 0 -1368 0 -1367 265 0 265 0 0 1367 0 1368 540 0 540 0 2 -1367 3
-1368 263 0 c226 0 262 2 263 15 0 8 1 717 1 1575 l1 1560 -808 0 -807 0 5
115 c3 63 8 126 11 140 64 301 208 494 423 568 252 87 677 6 912 -174 25 -19
48 -31 51 -27 13 14 220 375 220 381 -1 12 -91 69 -190 121 -191 99 -410 166
-615 186 -61 6 -223 13 -228 9z"/>
<path d="M1737 3470 l-77 -5 -538 -532 c-295 -293 -661 -656 -812 -807 l-275
-275 0 -270 c0 -149 3 -271 6 -271 4 0 22 14 40 31 56 52 287 269 372 349 43
41 102 96 130 122 l50 46 51 -71 c28 -40 58 -82 66 -94 8 -12 87 -122 175
-245 88 -123 301 -421 473 -663 173 -242 318 -444 323 -450 11 -11 569 -14
569 -3 0 6 -395 564 -526 743 -60 82 -199 276 -218 305 -14 19 -62 87 -108
152 -381 533 -449 630 -446 638 3 7 167 181 395 416 68 70 402 417 522 543 35
36 122 126 193 200 71 73 127 135 125 137 -7 7 -399 10 -490 4z"/>
</g>
</svg>
